<?xml version="1.0" encoding="UTF-8"?>
<svg version="1.1" xmlns="http://www.w3.org/2000/svg" width="512" height="512">
<path d="M0 0 C5.52013044 3.08039076 8.60528998 6.87836995 10.625 12.9375 C11.82398871 24.70813027 8.91309682 34.83481741 5.62158203 45.99291992 C5.08089854 47.87640936 4.54185824 49.76037115 4.00431824 51.64476013 C2.5418898 56.75393489 1.05669569 61.85623703 -0.43259573 66.95763564 C-2.0182529 72.40438561 -3.58224127 77.85735433 -5.14871216 83.30964661 C-8.14517335 93.72716785 -11.16034169 104.13917562 -14.18248475 114.54927188 C-17.8427827 127.16057281 -21.48036601 139.77839743 -25.1171875 152.39648438 C-29.01545723 165.91916847 -32.91652224 179.44102035 -36.83123779 192.95895386 C-42.95114167 214.09646022 -49.04680189 235.24007983 -55.05038524 256.41096199 C-55.97047787 259.65517683 -56.89149917 262.89912662 -57.81279945 266.1429987 C-60.40324332 275.26577445 -62.99118764 284.38917658 -65.56024933 293.51800013 C-66.59086016 297.17427679 -67.62786265 300.82871859 -68.66651106 304.48271918 C-69.1419211 306.16073173 -69.61452172 307.83954331 -70.084023 309.51921868 C-75.99711181 330.66556163 -75.99711181 330.66556163 -81.8125 335.3125 C-82.64587891 336.00472656 -82.64587891 336.00472656 -83.49609375 336.7109375 C-89.1670265 340.41296013 -94.78278293 340.78469256 -101.375 339.9375 C-107.24770073 338.07684234 -112.24017146 335.30296464 -115.46875 329.9296875 C-121.91279758 315.76389325 -114.0648821 298.85870534 -109.99926758 284.77099609 C-109.45608954 282.87580707 -108.91332624 280.98049913 -108.37094116 279.08508301 C-106.90057917 273.95113422 -105.4244773 268.81885179 -103.94735932 263.6868434 C-102.37361801 258.2152032 -100.80536493 252.74199022 -99.23649597 247.26895142 C-96.24083677 236.82154394 -93.24049127 226.37548854 -90.23837441 215.9299351 C-86.26548614 202.10591264 -82.29893254 188.2800734 -78.33254027 174.45418596 C-77.35632246 171.05133574 -76.38006629 167.64849653 -75.40377808 164.2456665 C-75.08271021 163.12659102 -74.76164234 162.00751553 -74.43084514 160.85452867 C-72.17250277 152.98411674 -69.91152943 145.11446332 -67.64968872 137.24505615 C-61.76876214 116.78000929 -55.90279702 96.31109456 -50.10075486 75.82352424 C-49.24737785 72.81123518 -48.39298399 69.79923667 -47.53816891 66.78735542 C-47.26311411 65.81818558 -46.98805932 64.84901573 -46.70466954 63.8504771 C-46.15977781 61.93063469 -45.61484048 60.01080521 -45.06985563 58.09098923 C-43.51450475 52.60934068 -41.96632169 47.12573374 -40.42369223 41.64049244 C-39.48446831 38.30686106 -38.53876817 34.97509252 -37.59130502 31.64379454 C-37.15970571 30.12095831 -36.73087598 28.59733377 -36.30513358 27.07284975 C-30.75565111 7.21164615 -30.75565111 7.21164615 -24.9375 2.5625 C-24.38191406 2.10101563 -23.82632813 1.63953125 -23.25390625 1.1640625 C-16.04505584 -3.54192301 -7.71848698 -3.50735432 0 0 Z " fill="#28B6F6" transform="translate(309.375,87.0625)"/>
<path d="M0 0 C0.85980469 -0.03996094 1.71960938 -0.07992187 2.60546875 -0.12109375 C11.90358403 1.49843181 18.45714773 7.35662455 24.87060547 13.88037109 C25.7142012 14.71841782 26.55779694 15.55646454 27.42695618 16.41990662 C29.71486264 18.69809698 31.99133445 20.98696421 34.26254416 23.28177977 C36.65345716 25.69296268 39.05751869 28.09097564 41.45974731 30.49087524 C45.48769486 34.51887617 49.50572842 38.556555 53.51757812 42.60058594 C58.14432319 47.26426538 62.78501525 51.9136896 67.43374145 56.55545175 C71.92385045 61.03923997 76.4053487 65.53153421 80.88254166 70.02821732 C82.78024728 71.93405989 84.68061773 73.83718384 86.5831871 75.73817062 C89.23991199 78.39669683 91.88661469 81.06481104 94.53076172 83.73583984 C95.31418442 84.51633194 96.09760712 85.29682404 96.9047699 86.10096741 C103.16599304 92.46046977 107.45566327 98.08494912 108.0625 107.1875 C107.59709997 124.06600767 87.10416583 138.3528725 76.02734375 149.49609375 C75.18937319 150.33938799 74.35140263 151.18268223 73.48803902 152.05153084 C69.06412951 156.50196052 64.63669322 160.94885029 60.20678711 165.39331055 C56.56010279 169.05339249 52.92085302 172.72063363 49.2878418 176.39428711 C44.87074525 180.86076028 40.44144409 185.31477734 36.00314522 189.76017952 C34.32406729 191.44594701 32.64922789 193.1359479 30.97886467 194.83035088 C28.64203586 197.19892323 26.28978723 199.55110326 23.93334961 201.90014648 C23.25722626 202.59267517 22.58110291 203.28520386 21.88449097 203.99871826 C16.44066665 209.37331674 10.30978047 213.52558293 2.7109375 215.06640625 C-4.36998137 214.88006628 -9.67940023 213.734645 -14.94140625 208.7890625 C-19.20256534 204.08638572 -21.4630069 199.70113707 -21.625 193.25 C-21.66496094 192.39019531 -21.70492188 191.53039062 -21.74609375 190.64453125 C-20.2773255 182.21195269 -15.27781216 175.78845551 -9.28588867 169.96826172 C-8.61216217 169.29380508 -7.93843567 168.61934845 -7.24429321 167.92445374 C-5.04300702 165.72661511 -2.82462746 163.54696568 -0.60546875 161.3671875 C0.93547513 159.83558172 2.47530941 158.30285884 4.01408386 156.76907349 C8.04560503 152.75654305 12.09191796 148.75926362 16.14160156 144.76507568 C20.27995301 140.67808747 24.40399401 136.57671382 28.52929688 132.4765625 C36.609832 124.44947519 44.70608217 116.43844212 52.8125 108.4375 C51.5420506 105.65270712 50.24235124 103.62306357 48.0620575 101.48019409 C47.50278564 100.92539871 46.94351379 100.37060333 46.36729431 99.79899597 C45.75584061 99.20258804 45.1443869 98.60618011 44.5144043 97.99169922 C43.54577957 97.03468361 43.54577957 97.03468361 42.55758667 96.05833435 C41.15573736 94.6741283 39.75169888 93.29213661 38.34573936 91.91210556 C36.11627756 89.72210814 33.89445395 87.52463106 31.67475891 85.32473755 C25.36292149 79.07088296 19.04175366 72.82659461 12.70532227 66.59765625 C8.82779374 62.7848421 4.96278095 58.95970628 1.10520363 55.1267128 C-0.36244265 53.67326318 -1.83473758 52.22449122 -3.31185341 50.78066635 C-19.70423429 34.7524874 -19.70423429 34.7524874 -21.81640625 24.3359375 C-21.63006628 17.25501863 -20.484645 11.94559977 -15.5390625 6.68359375 C-10.83638572 2.42243466 -6.45113707 0.1619931 0 0 Z " fill="#1465BF" transform="translate(362.1875,148.5625)"/>
<path d="M0 0 C5.87500679 2.5738125 10.13761088 6.95857802 12.875 12.734375 C13.77744295 15.4539542 14.10395854 17.66320378 14.17578125 20.5234375 C14.21574219 21.38324219 14.25570312 22.24304688 14.296875 23.12890625 C12.82810675 31.56148481 7.82859341 37.98498199 1.83666992 43.80517578 C1.16294342 44.47963242 0.48921692 45.15408905 -0.20492554 45.84898376 C-2.40621173 48.04682239 -4.62459129 50.22647182 -6.84375 52.40625 C-8.38469388 53.93785578 -9.92452816 55.47057866 -11.46330261 57.00436401 C-15.49482378 61.01689445 -19.54113671 65.01417388 -23.59082031 69.00836182 C-27.72917176 73.09535003 -31.85321276 77.19672368 -35.97851562 81.296875 C-44.05905075 89.32396231 -52.15530092 97.33499538 -60.26171875 105.3359375 C-58.99126935 108.12073038 -57.69156999 110.15037393 -55.51127625 112.29324341 C-54.95200439 112.84803879 -54.39273254 113.40283417 -53.81651306 113.97444153 C-53.20505936 114.57084946 -52.59360565 115.16725739 -51.96362305 115.78173828 C-51.31787323 116.41974869 -50.67212341 117.05775909 -50.00680542 117.71510315 C-48.60495611 119.0993092 -47.20091763 120.48130089 -45.79495811 121.86133194 C-43.56549631 124.05132936 -41.3436727 126.24880644 -39.12397766 128.44869995 C-32.81214024 134.70255454 -26.49097241 140.94684289 -20.15454102 147.17578125 C-16.27701249 150.9885954 -12.4119997 154.81373122 -8.55442238 158.6467247 C-7.0867761 160.10017432 -5.61448117 161.54894628 -4.13736534 162.99277115 C12.25501554 179.0209501 12.25501554 179.0209501 14.3671875 189.4375 C14.18084753 196.51841887 13.03542625 201.82783773 8.08984375 207.08984375 C3.38716697 211.35100284 -0.99808168 213.6114444 -7.44921875 213.7734375 C-8.30902344 213.81339844 -9.16882813 213.85335937 -10.0546875 213.89453125 C-19.29487423 212.28509556 -25.83707375 206.48702052 -32.2121582 200.00073242 C-33.04439407 199.17404556 -33.87662994 198.3473587 -34.73408508 197.49562073 C-37.46012445 194.7813158 -40.16779816 192.04948948 -42.875 189.31640625 C-44.77475866 187.41246131 -46.67782549 185.51183421 -48.58061218 183.61091614 C-52.55728576 179.63418918 -56.52404464 175.64778662 -60.48461914 171.6550293 C-65.04887314 167.05386564 -69.62704563 162.4669329 -74.21327049 157.88767546 C-78.64571442 153.46155872 -83.06953394 149.02692346 -87.48906517 144.58791542 C-89.36084265 142.70801178 -91.23559358 140.8312303 -93.11187172 138.95580101 C-95.73486404 136.33100397 -98.34781956 133.69660721 -100.95825195 131.05932617 C-101.72872864 130.29178009 -102.49920532 129.52423401 -103.29302979 128.73342896 C-109.81645706 122.10660012 -114.87763506 116.09719283 -115.51171875 106.5859375 C-115.11566467 90.07352891 -95.9937514 76.85693608 -85.234375 66.03515625 C-83.94157025 64.73436599 -83.94157025 64.73436599 -82.62264824 63.40729713 C-78.06909651 58.8271737 -73.51198259 54.25062543 -68.95239258 49.67651367 C-65.19501052 45.90575056 -61.44508381 42.12787012 -57.70141602 38.34350586 C-53.1569471 33.7496632 -48.60027333 29.16826998 -44.03460503 24.59549904 C-42.30528988 22.85949046 -40.58021643 21.11924525 -38.85960579 19.37460899 C-36.45071429 16.93398113 -34.02639613 14.50972392 -31.59790039 12.08862305 C-30.89993347 11.37425079 -30.20196655 10.65987854 -29.48284912 9.92385864 C-21.24696952 1.78964517 -11.68071444 -3.42957073 0 0 Z " fill="#1464BF" transform="translate(157.26171875,149.6640625)"/>
</svg>
